# xmcd
#
# Track frame offsets:
#	150
#	11600
#	22137
#	34225
#	46925
#	59417
#	75800
#	89747
#	100500
#	113675
#	127742
#	138900
#	148837
#	162150
#	173800
#	186500
#	199717
#	210567
#
# Disc length: 2978 seconds
#
# Revision: 1
# Processed by: cddbd v1.4PL0 Copyright (c) Steve Scherf et al.
# Submitted via: audiograbber 1.80
#
DISCID=ef0ba012
DTITLE=Various Artist - Legends In Their Own Time  Disc 2
DYEAR=1900
DGENRE=
TTITLE0=Don Gibson - Sea Of Heartbreak
TTITLE1=Waylon Jennings - Only Daddy That'll Walk The Line
TTITLE2=Liz Anderson - Mama Spank
TTITLE3=Bobby Bare - Detroit City
TTITLE4=Hank Snow - I've Been Everywhere
TTITLE5=Dicky Lee - Rocky
TTITLE6=Eddy Arnold - Tennesse Stud
TTITLE7=Hank Locklin - Please Help Me, I'm Falling
TTITLE8=Dolly Parton - I Will Always Love You
TTITLE9=Charley Pride - I Can't Believe That You Stopped Loving Me
TTITLE10=Carl Belew - Hello Out There
TTITLE11=Don Gibson - Who Cares
TTITLE12=Ronnie Milsap - (I'd Be) A Legend In My Own Time
TTITLE13=Porter Wagoner - Misery Loves Company
TTITLE14=Jim Reeves - Four Walls
TTITLE15=Hank Snow - I Don't Hurt Anymore
TTITLE16=Charlie Rich - There Won't Be Anymore
TTITLE17=Brown, The - The Three Bells
EXTD=
EXTT0=
EXTT1=
EXTT2=
EXTT3=
EXTT4=
EXTT5=
EXTT6=
EXTT7=
EXTT8=
EXTT9=
EXTT10=
EXTT11=
EXTT12=
EXTT13=
EXTT14=
EXTT15=
EXTT16=
EXTT17=
PLAYORDER=
